<?xml version="1.0" standalone="no"?>
<!DOCTYPE svg PUBLIC "-//W3C//DTD SVG 20010904//EN"
 "http://www.w3.org/TR/2001/REC-SVG-20010904/DTD/svg10.dtd">
<svg version="1.0" xmlns="http://www.w3.org/2000/svg"
 width="512.000000pt" height="512.000000pt" viewBox="0 0 512.000000 512.000000"
 preserveAspectRatio="xMidYMid meet">

<g transform="translate(0.000000,512.000000) scale(0.100000,-0.100000)"
fill="#000000" stroke="none">
<path d="M2320 4814 c-30 -3 -161 -16 -290 -30 -137 -15 -326 -28 -452 -31
l-218 -6 0 -148 0 -149 150 0 150 0 0 -150 0 -150 -830 0 -830 0 0 -609 0
-608 187 -46 c257 -64 663 -147 714 -147 5 0 9 63 9 140 l0 140 150 0 150 0 0
-160 c0 -121 3 -160 13 -160 6 0 55 -5 107 -10 52 -5 137 -10 188 -11 l92 -3
39 67 c146 249 378 425 659 498 100 27 292 36 403 20 318 -47 594 -235 760
-518 l39 -67 92 3 c51 1 136 6 188 11 52 5 101 10 108 10 9 0 12 39 12 160 l0
160 150 0 150 0 0 -140 c0 -77 3 -140 8 -140 14 0 285 49 387 70 55 11 193 43
308 72 l207 51 0 609 0 608 -830 0 -830 0 0 150 0 150 150 0 150 0 0 149 0
148 -222 6 c-137 4 -310 16 -448 32 -218 25 -618 40 -770 29z m678 -320 l162
-18 0 -163 0 -163 -600 0 -600 0 0 163 0 163 173 17 c94 10 190 19 212 21 95
9 502 -3 653 -20z"/>
<path d="M2384 2951 c-265 -65 -478 -274 -551 -541 -27 -100 -25 -292 6 -390
82 -266 288 -463 549 -527 88 -21 256 -21 344 0 262 64 467 260 549 527 31 98
33 289 6 390 -92 335 -389 562 -731 559 -60 0 -130 -8 -172 -18z m326 -431 l0
-150 150 0 150 0 0 -150 0 -150 -300 0 -300 0 0 300 0 300 150 0 150 0 0 -150z"/>
<path d="M0 1460 l0 -1160 2560 0 2560 0 0 1160 c0 638 -2 1160 -4 1160 -3 0
-78 -18 -166 -40 -180 -44 -517 -112 -652 -132 l-88 -12 0 -158 0 -158 -150 0
-150 0 0 141 0 141 -32 -5 c-18 -4 -88 -9 -155 -13 l-121 -7 5 -107 c22 -415
-211 -805 -592 -990 -400 -195 -873 -116 -1193 199 -210 206 -325 500 -309
791 l5 107 -121 7 c-67 4 -137 9 -154 13 l-33 5 0 -141 0 -141 -150 0 -150 0
0 158 0 159 -87 12 c-124 17 -513 96 -675 137 -75 18 -139 34 -142 34 -4 0 -6
-522 -6 -1160z"/>
</g>
</svg>
